<svg id="_0390_mountain_1" data-name="0390_mountain_1" xmlns="http://www.w3.org/2000/svg" viewBox="0 0 500 500" data-imageid="mountain-1-78" imageName="Mountain 1" class="illustrations_image" style="width: 166px;"><defs><style>.cls-1_mountain-1-78{fill:#fff;}.cls-2_mountain-1-78{fill:#093f68;}.cls-3_mountain-1-78{fill:#ffbc0e;}.cls-4_mountain-1-78{fill:#68e1fd;}</style></defs><g id="circle_mountain-1-78"><path class="cls-1_mountain-1-78" d="M427.84,250a178.28,178.28,0,0,1-1.4,22.42c-.74,5.91-1.78,11.73-3.07,17.43-.4,1.71-.82,3.39-1.27,5.08a177.89,177.89,0,0,1-336.56,22.8,172,172,0,0,1-7.83-23.52c-1.4-5.46-2.56-11-3.43-16.66A178.66,178.66,0,0,1,72.16,250c0-2.79,0-5.55.19-8.3A177.84,177.84,0,0,1,395.65,148a176.92,176.92,0,0,1,32.19,102Z"/><path class="cls-2_mountain-1-78" d="M250,429.73A179.16,179.16,0,0,1,83.78,318.46a176.14,176.14,0,0,1-7.91-23.77c-1.43-5.6-2.6-11.27-3.46-16.84A181.47,181.47,0,0,1,70.26,250c0-3,.07-5.74.19-8.39a179.15,179.15,0,0,1,7.67-44.3,181.19,181.19,0,0,1,64-91.11A178.21,178.21,0,0,1,250,70.27a180,180,0,0,1,147.2,76.61A178.94,178.94,0,0,1,429.74,250a181.12,181.12,0,0,1-1.42,22.65c-.72,5.78-1.77,11.71-3.1,17.62-.41,1.74-.83,3.45-1.29,5.15A179.65,179.65,0,0,1,250,429.73Zm0-355.67a174.44,174.44,0,0,0-105.57,35.18,177.46,177.46,0,0,0-62.69,89.19,175.52,175.52,0,0,0-7.5,43.37c-.12,2.59-.19,5.27-.19,8.21a177.79,177.79,0,0,0,2.1,27.26c.85,5.45,2,11,3.4,16.48A169.57,169.57,0,0,0,87.29,317a176,176,0,0,0,333-22.55c.45-1.68.86-3.35,1.26-5,1.3-5.78,2.32-11.58,3-17.24A177.41,177.41,0,0,0,426,250,176,176,0,0,0,250,74.06Z"/></g><g id="sun_mountain-1-78"><circle class="cls-3_mountain-1-78" cx="205.72" cy="134.45" r="36.57"/><path class="cls-2_mountain-1-78" d="M205.72,172.92a38.47,38.47,0,1,1,38.47-38.47A38.52,38.52,0,0,1,205.72,172.92Zm0-73.15a34.68,34.68,0,1,0,34.68,34.68A34.72,34.72,0,0,0,205.72,99.77Z"/></g><g id="mountain_mountain-1-78"><path class="cls-2_mountain-1-78" d="M423.37,289.86c-.4,1.71-.82,3.39-1.27,5.08h-109l11.73-22.1,8.66-16.31,11-19.5,12.62-22.42,53.08,60.28Z"/><path class="cls-2_mountain-1-78" d="M422.1,296.83h-109a1.89,1.89,0,0,1-1.67-2.78l20.39-38.41,23.59-42a1.88,1.88,0,0,1,1.45-1,1.87,1.87,0,0,1,1.63.63l66.26,75.25a1.9,1.9,0,0,1,.43,1.68c-.41,1.73-.83,3.44-1.29,5.14A1.88,1.88,0,0,1,422.1,296.83ZM316.29,293H420.64c.23-.88.45-1.77.66-2.66l-63.86-72.51-22.26,39.59Z"/><polygon class="cls-4_mountain-1-78 targetColor" points="357.1 214.61 360.16 294.94 313.13 294.94 357.1 214.61" style="fill: rgb(0, 170, 88);"/><path class="cls-2_mountain-1-78" d="M360.16,296.84h-47a1.88,1.88,0,0,1-1.63-.93,1.91,1.91,0,0,1,0-1.88l44-80.33a1.9,1.9,0,0,1,3.56.84l3.05,80.33a1.9,1.9,0,0,1-1.89,2Zm-43.83-3.79h41.86l-2.72-71.51Z"/><polygon class="cls-4_mountain-1-78 targetColor" points="179.84 181.43 127.88 270.06 202.1 299.75 230.05 284.03 179.84 181.43" style="fill: rgb(0, 170, 88);"/><path class="cls-2_mountain-1-78" d="M202.1,301.64a1.93,1.93,0,0,1-.7-.13l-74.22-29.69a1.91,1.91,0,0,1-1.09-1.15,1.88,1.88,0,0,1,.16-1.57l51.95-88.63a1.85,1.85,0,0,1,1.71-.94,1.93,1.93,0,0,1,1.63,1.06L231.75,283.2a1.89,1.89,0,0,1-.77,2.48L203,301.4A1.87,1.87,0,0,1,202.1,301.64Zm-71.47-32.52L202,297.65l25.59-14.39-47.87-97.83Z"/><path class="cls-2_mountain-1-78" d="M230.05,252.59l-50.21-71.16s-2.19,31.43,6.11,46.71S198.17,284,199.48,284,230.05,252.59,230.05,252.59Z"/><path class="cls-2_mountain-1-78" d="M199.48,285.92c-2,0-2.1-.45-4-12-2.14-13-5.72-34.77-11.19-44.84-8.46-15.59-6.43-46.45-6.33-47.76a1.9,1.9,0,0,1,3.44-1L231.6,251.5a1.9,1.9,0,0,1-.16,2.38C201.62,285.92,200.53,285.92,199.48,285.92Zm-18-98.83c-.2,9.59.21,29.31,6.09,40.15,5.78,10.64,9.42,32.79,11.6,46,.45,2.75.91,5.55,1.28,7.46,5-4.77,18.14-18.66,27.12-28.3Z"/><path class="cls-2_mountain-1-78" d="M274.15,144.75l128.8,169-45.85,3.49s-107-45.41-99.11-82.95S274.15,144.75,274.15,144.75Z"/><path class="cls-2_mountain-1-78" d="M357.1,319.11a2.12,2.12,0,0,1-.74-.15c-4.42-1.88-108.31-46.46-100.22-85.09,7.76-37.08,16.05-88.9,16.13-89.42a1.91,1.91,0,0,1,1.41-1.54,1.89,1.89,0,0,1,2,.69l128.8,169a1.9,1.9,0,0,1-1.36,3l-45.84,3.49ZM275.31,149.4c-2.17,13.31-9,54.37-15.47,85.24-3,14.5,12.78,33,45.73,53.55a436.64,436.64,0,0,0,51.85,27.1l41.9-3.2Z"/><path class="cls-4_mountain-1-78 targetColor" d="M274.15,144.75s22.7,42.79,22.26,59.38-4.35,24.89,0,30.13,60.68,82.95,60.68,82.95H152.33Z" style="fill: rgb(0, 170, 88);"/><path class="cls-2_mountain-1-78" d="M357.1,319.11H152.33a1.9,1.9,0,0,1-1.55-3L272.6,143.66a1.93,1.93,0,0,1,1.67-.8,1.9,1.9,0,0,1,1.55,1c.94,1.77,22.93,43.43,22.49,60.32A147.58,147.58,0,0,1,297,219.45c-.85,6.79-1.37,10.9.88,13.59,4.35,5.23,58.46,79.88,60.76,83.06a1.92,1.92,0,0,1,.15,2A1.89,1.89,0,0,1,357.1,319.11ZM156,315.32h197.4C343,301,298.75,240,295,235.47c-3.29-4-2.67-8.95-1.72-16.49a145.91,145.91,0,0,0,1.28-14.9c.35-13.53-15.69-46-20.62-55.69Z"/><path class="cls-2_mountain-1-78" d="M129.63,204.13l87.76,112.21-43.67,4.37s-60.25-55-56.76-69.86S129.63,204.13,129.63,204.13Z"/><path class="cls-2_mountain-1-78" d="M173.72,322.6a1.88,1.88,0,0,1-1.27-.5c-6.25-5.7-61-56.21-57.33-71.69,3.46-14.72,12.59-46.49,12.68-46.81a1.9,1.9,0,0,1,3.32-.64l87.76,112.21a1.89,1.89,0,0,1-1.31,3.05l-43.66,4.37ZM130.43,208.23c-2.49,8.75-8.87,31.35-11.62,43.05-2.34,9.94,32.58,46.38,55.57,67.46l39.39-3.95Z"/><path class="cls-4_mountain-1-78 targetColor" d="M173.73,320.71,123.27,319l-1.5-.05-36.23-1.21a172,172,0,0,1-7.83-23.52c-1.4-5.46-2.56-11-3.43-16.66,24.22-31.87,54.29-72,55.33-73.39v.06c0,.05,0,.15-.07.26l-.06.21c-.93,4.26-6.54,30.7,1.9,36.21,4,2.62,7.33,4,10.13,5.9,3.64,2.42,6.43,5.66,8.64,13.43,1.31,4.59,4.4,12.89,7.91,21.89,2.21,5.72,4.62,11.73,6.88,17.24,1.49,3.68,2.89,7.13,4.15,10.16s2.36,5.74,3.18,7.67C173.18,319.42,173.73,320.71,173.73,320.71Z" style="fill: rgb(0, 170, 88);"/><path class="cls-2_mountain-1-78" d="M173.73,322.61h-.07l-88.19-3a1.89,1.89,0,0,1-1.68-1.17,174.8,174.8,0,0,1-7.92-23.77c-1.43-5.6-2.6-11.27-3.46-16.84a1.91,1.91,0,0,1,.36-1.44c19.38-25.5,42.73-56.6,51.51-68.3l3.83-5.09a1.9,1.9,0,0,1,3.4,1.15,2.3,2.3,0,0,1-.09.64l-.09.29c-3,13.54-4.43,30.62,1.08,34.23,2.05,1.34,3.89,2.34,5.67,3.3,1.59.86,3.09,1.67,4.49,2.6,3.91,2.61,7,6.07,9.41,14.49,1.13,4,3.69,11.07,7.84,21.72,2.07,5.33,4.44,11.28,6.87,17.21l.67,1.65c1.24,3.06,2.42,5.93,3.48,8.51l1.32,3.19c.71,1.73,1.34,3.24,1.85,4.47.91,2.21,1.46,3.49,1.46,3.5a1.9,1.9,0,0,1-1.74,2.64Zm-86.91-6.73,84,2.84-.32-.8c-.52-1.21-1.14-2.73-1.86-4.47l-1.33-3.19-3.48-8.53-.67-1.64c-2.43-5.95-4.82-11.93-6.89-17.28-4.19-10.76-6.79-18-8-22.05-2.09-7.33-4.56-10.17-7.87-12.38-1.25-.83-2.61-1.57-4.18-2.42-1.76-1-3.76-2-5.94-3.46-6.8-4.45-6.07-18.93-4.16-30.6-9.46,12.59-31.4,41.81-49.9,66.17.83,5.19,1.92,10.46,3.27,15.68A170.8,170.8,0,0,0,86.82,315.88Z"/></g><g id="clouds_mountain-1-78"><path class="cls-1_mountain-1-78" d="M426.44,272.43c-.74,5.91-1.78,11.73-3.07,17.43-.4,1.71-.82,3.39-1.27,5.08a177.89,177.89,0,0,1-336.56,22.8,172,172,0,0,1-7.83-23.52,30.4,30.4,0,0,1,7.22,8.58A8.46,8.46,0,0,1,99.64,311c8-3.18,18,.55,22.13,8,.21.38.42.76.59,1.15a13.26,13.26,0,0,1,.91-1.1c7.94-9.09,22-12,33.18-7.61,6,2.36,5.06,3.19,10.43.9,3.86-1.64,6.84-3,11.17-1.62,4.55,1.42,8.21,4.88,11,8.74a17.11,17.11,0,0,1,28.21-10c3.78-19.49,30.06-23.17,37.44-4,7.84-6.52,21.24-4.51,26.83,4,16.22-13.36,43.49-9.21,55.54,7.76.57.78,1.08,1.6,1.58,2.43.81-.85,1.64-1.67,2.52-2.43a46.26,46.26,0,0,1,5.81-4.56,48.2,48.2,0,0,1,4.74-2.83A51.52,51.52,0,0,1,379.1,304a29.84,29.84,0,0,1,2.37-9,33.62,33.62,0,0,1,3-5.44c5.64-8.24,15-14.08,25-14.59.22,0,.43,0,.66,0,4.26-.15,8.64.42,12.72-.87A19.06,19.06,0,0,0,426.44,272.43Z"/><path class="cls-2_mountain-1-78" d="M250,429.73A179.16,179.16,0,0,1,83.78,318.46a176.14,176.14,0,0,1-7.91-23.77,1.89,1.89,0,0,1,.83-2.07,1.91,1.91,0,0,1,2.22.13,32.71,32.71,0,0,1,6.35,7,10.3,10.3,0,0,1,16.85,8.53,20.51,20.51,0,0,1,20.57,8.56c8.43-8.8,22.7-11.84,34.45-7.19,1.29.5,2.27.94,3.06,1.3,2.46,1.1,2.46,1.1,5.94-.38l.18-.08c4-1.69,7.37-3.15,12.29-1.61a22,22,0,0,1,9.62,6.51,18.95,18.95,0,0,1,27.91-9.2,22,22,0,0,1,19-15.25c8.8-.79,16.42,3.62,20.39,11.58a21.16,21.16,0,0,1,26.41,4.25c7.82-5.7,18.19-8.15,28.76-6.75,11.6,1.54,21.79,7.41,28,16.11.12.16.24.34.36.51l.94-.84a48.4,48.4,0,0,1,6-4.72,50.56,50.56,0,0,1,4.91-2.93A53.07,53.07,0,0,1,377.45,302a31.28,31.28,0,0,1,2.29-7.79,35.7,35.7,0,0,1,3.18-5.75c6.16-9,16.31-14.89,26.5-15.41.21,0,.48,0,.76,0,1.16,0,2.39,0,3.62,0a26.94,26.94,0,0,0,8.52-.77,17,17,0,0,0,3.19-1.43,1.89,1.89,0,0,1,2.81,1.88c-.72,5.78-1.77,11.71-3.1,17.62-.41,1.74-.83,3.45-1.29,5.15A179.65,179.65,0,0,1,250,429.73ZM81.58,301.07c1.63,5.36,3.54,10.7,5.71,15.94a176,176,0,0,0,333-22.55c.45-1.68.86-3.35,1.26-5,1-4.62,1.9-9.26,2.57-13.82l-.63.21a30.13,30.13,0,0,1-9.72.95c-1.16,0-2.33,0-3.5,0a4.62,4.62,0,0,0-.56,0c-9.11.46-18.14,5.74-23.64,13.77a32,32,0,0,0-2.84,5.13,27.61,27.61,0,0,0-2.22,8.44,1.88,1.88,0,0,1-2,1.71,49.27,49.27,0,0,0-26.35,5.64,43.57,43.57,0,0,0-4.54,2.71,45.8,45.8,0,0,0-5.61,4.39c-.81.71-1.59,1.47-2.43,2.35a1.91,1.91,0,0,1-3-.35c-.54-.91-1-1.63-1.47-2.27-5.58-7.86-14.82-13.16-25.38-14.56-10.26-1.36-20.26,1.24-27.42,7.14a1.92,1.92,0,0,1-1.49.41,1.87,1.87,0,0,1-1.3-.84,17.08,17.08,0,0,0-24-3.61,1.9,1.9,0,0,1-3-.78c-3.54-9.22-11.37-11.92-17.5-11.38a18.07,18.07,0,0,0-16.31,15,1.89,1.89,0,0,1-3.12,1.06,15.2,15.2,0,0,0-25.08,8.93,1.89,1.89,0,0,1-3.4.8c-3.07-4.21-6.45-6.92-10.06-8s-6-.09-9.67,1.48l-.18.07c-4.67,2-5.56,1.89-9,.36-.74-.34-1.67-.76-2.89-1.24-10.7-4.23-23.77-1.25-31.06,7.1-.3.34-.57.66-.82,1a1.89,1.89,0,0,1-3.26-.39,10.56,10.56,0,0,0-.48-1c-3.74-6.7-12.79-10-19.79-7.19a1.9,1.9,0,0,1-2.45-2.49,6.57,6.57,0,0,0-11.42-6.31,2,2,0,0,1-1.65.78,1.85,1.85,0,0,1-1.54-1A28.37,28.37,0,0,0,81.58,301.07Z"/><path class="cls-1_mountain-1-78" d="M358.78,327.88a27.12,27.12,0,0,0-38.2,10c-4.05-5.95-13.16-5.35-19.65-2.26a40.28,40.28,0,0,0-22.25,30.83"/><path class="cls-2_mountain-1-78" d="M278.68,368.36h-.24a1.89,1.89,0,0,1-1.64-2.11,42.34,42.34,0,0,1,23.32-32.31c6.62-3.15,15.14-3.65,20.17.8a29,29,0,0,1,39.49-8.45,1.89,1.89,0,0,1-2,3.21,25.24,25.24,0,0,0-35.53,9.32A1.9,1.9,0,0,1,319,339c-3.31-4.86-11.2-4.5-17.27-1.61a38.48,38.48,0,0,0-21.18,29.35A1.9,1.9,0,0,1,278.68,368.36Z"/><path class="cls-1_mountain-1-78" d="M189.78,319.51c5.39,1.5,11.23,1.21,16.4,3.34a19.3,19.3,0,0,1,10.95,21.94c4.35-1.71,8.79-3.41,13.45-3.82s9.64.59,13.1,3.73c3.17,2.87,4.7,7.14,5.48,11.35,1.4,7.59.59,15.82-3.53,22.36,3.19-2,7.36-.53,10.75,1.14,4.4,2.17,8.94,4.83,11.13,9.22,3.4,6.8,0,14.87-.21,22.48"/><path class="cls-2_mountain-1-78" d="M267.3,413.14h0a1.9,1.9,0,0,1-1.85-1.94,59.67,59.67,0,0,1,.87-7.7c.81-5.05,1.56-9.82-.47-13.89-1.92-3.84-6.07-6.29-10.27-8.36s-7-2.45-8.89-1.25a1.89,1.89,0,0,1-2.62-2.6c3.56-5.66,4.72-13.12,3.26-21-.87-4.73-2.47-8.09-4.88-10.28-2.75-2.49-7-3.68-11.66-3.26-4.22.38-8.18,1.84-12.92,3.71a1.9,1.9,0,0,1-2-.35,1.87,1.87,0,0,1-.58-1.89c2-7.67-2.52-16.7-9.84-19.72a35.61,35.61,0,0,0-8.92-2,53.6,53.6,0,0,1-7.26-1.32,1.89,1.89,0,1,1,1-3.65,48.92,48.92,0,0,0,6.75,1.21,39.1,39.1,0,0,1,9.86,2.21c8.06,3.32,13.22,12.14,12.62,20.74a42.36,42.36,0,0,1,10.88-2.76c5.72-.51,11,1,14.56,4.22,3,2.77,5,6.83,6.06,12.4a34.76,34.76,0,0,1-1.76,19.83,19.36,19.36,0,0,1,8,2.32c4.79,2.37,9.56,5.22,12,10.07,2.58,5.15,1.69,10.75.83,16.17a54.8,54.8,0,0,0-.83,7.2A1.9,1.9,0,0,1,267.3,413.14Z"/><path class="cls-1_mountain-1-78" d="M124.58,361.49A19.25,19.25,0,0,1,156.41,379c4.57-4.59,11.66-5.79,18.07-4.95a35.54,35.54,0,0,1,26.24,18.08"/><path class="cls-2_mountain-1-78" d="M200.72,394a1.88,1.88,0,0,1-1.67-1,33.59,33.59,0,0,0-24.81-17.11c-6.8-.89-12.81.72-16.48,4.42a1.9,1.9,0,0,1-2.21.34,1.88,1.88,0,0,1-1-2,17.36,17.36,0,0,0-28.71-15.78,1.89,1.89,0,1,1-2.52-2.82A21.1,21.1,0,0,1,158.51,375c4.36-2.6,10-3.62,16.22-2.81a37.43,37.43,0,0,1,27.66,19.06,1.91,1.91,0,0,1-1.67,2.8Z"/><path class="cls-1_mountain-1-78" d="M192.87,399c5.32-6.89,14.25-11.74,22.7-9.67,6.36,1.56,11.2,6.58,15.67,11.38"/><path class="cls-2_mountain-1-78" d="M231.24,402.6a1.89,1.89,0,0,1-1.39-.6c-3.88-4.17-8.71-9.35-14.74-10.83-8-2-16.19,3.1-20.74,9a1.89,1.89,0,0,1-3-2.31c5.29-6.87,15-12.73,24.65-10.36,7.12,1.75,12.38,7.39,16.6,11.92a1.89,1.89,0,0,1-1.38,3.19Z"/><path class="cls-1_mountain-1-78" d="M419.3,195.42c-9.29.73-18.65.83-27.95.92q-26.39.28-52.74.53c-2.5,0-5.93-.85-5.72-3.35a4.3,4.3,0,0,1,1.34-2.37A29,29,0,0,1,359,182.32c-3-3.45-1.72-9.11,1.5-12.35s7.79-4.65,12.14-5.95,9.78-2.28,12.72,1.15A26.82,26.82,0,0,1,395.65,148,176.19,176.19,0,0,1,419.3,195.42Z"/><path class="cls-2_mountain-1-78" d="M338.46,198.77c-1.19,0-4.49-.19-6.33-2.17a4.1,4.1,0,0,1-1.13-3.24,6.05,6.05,0,0,1,1.85-3.51,31,31,0,0,1,22.41-9.67h.45c-1.11-4,.54-8.67,3.4-11.55,3.58-3.61,8.56-5.11,12.95-6.43,3.57-1.06,8.33-2.08,12-.32a28.74,28.74,0,0,1,10.43-15.43,1.83,1.83,0,0,1,1.43-.35,1.91,1.91,0,0,1,1.26.78,178,178,0,0,1,23.9,48,1.88,1.88,0,0,1-.23,1.63,1.92,1.92,0,0,1-1.42.84c-9.35.74-18.86.83-28.06.93q-26.42.28-52.76.53ZM355.24,184a27.11,27.11,0,0,0-19.62,8.47,3.13,3.13,0,0,0-.85,1.27.33.33,0,0,0,.13.3c.53.58,2.14,1,3.68,1q26.39-.25,52.74-.53c8.37-.09,17-.17,25.42-.75a174.41,174.41,0,0,0-21.48-43,24.83,24.83,0,0,0-8.07,14.73,1.89,1.89,0,0,1-3.31.95c-1.75-2-5.16-2.23-10.74-.58-4.14,1.25-8.44,2.54-11.34,5.47-2.55,2.57-3.73,7.11-1.41,9.78a1.89,1.89,0,0,1-1.69,3.12A24.93,24.93,0,0,0,355.24,184Z"/><path class="cls-1_mountain-1-78" d="M134.9,232.61c-.57,2-3,2.51-5,2.73q-28.57,3.16-57.17,6.33l-.36,0a176.53,176.53,0,0,1,7.58-43.83,25.46,25.46,0,0,1,6.78,12.45c3.89-2.37,8.74-4.44,13.32-2.79s7.17,8,3.91,11.52c10,4,23.65,1.18,30,9.93A4.43,4.43,0,0,1,134.9,232.61Z"/><path class="cls-2_mountain-1-78" d="M72.52,243.59a2.08,2.08,0,0,1-1.4-.53,2,2,0,0,1-.67-1.44,179.15,179.15,0,0,1,7.67-44.3,1.9,1.9,0,0,1,3.18-.75,28.43,28.43,0,0,1,6.63,10.9c4.83-2.49,9-3.05,12.74-1.71A10.46,10.46,0,0,1,107,213a8.37,8.37,0,0,1-.24,5,63.23,63.23,0,0,0,9.42,1.72c7.27,1,14.78,1.94,19.24,8.13,1.66,2.32,1.62,4.14,1.29,5.26-1,3.44-5.24,3.92-6.63,4.08l-57.18,6.33-.24,0Zm8.23-41.81a175.28,175.28,0,0,0-6.39,37.8l55.31-6.12c2.71-.31,3.3-1,3.41-1.38h0a2.78,2.78,0,0,0-.72-2c-3.5-4.86-9.9-5.7-16.67-6.59-4.2-.55-8.55-1.12-12.46-2.69a1.86,1.86,0,0,1-1.14-1.34,1.89,1.89,0,0,1,.45-1.7,4.17,4.17,0,0,0,.79-3.85,6.7,6.7,0,0,0-3.94-4.61c-3.13-1.12-7-.26-11.69,2.63a1.91,1.91,0,0,1-2.85-1.26A22.36,22.36,0,0,0,80.75,201.78Z"/></g></svg>