<svg id="_0389_mountain" xmlns="http://www.w3.org/2000/svg" viewBox="0 0 500 500" data-imageid="mountain-58" imageName="Mountain" class="illustrations_image" style="width: 166px;"><defs><style>.cls-1_mountain-58{opacity:.15;}.cls-1_mountain-58,.cls-2_mountain-58{fill:#ffd200;}.cls-3_mountain-58,.cls-4_mountain-58,.cls-5_mountain-58{fill:#e6e6e6;}.cls-4_mountain-58{opacity:.3;}.cls-5_mountain-58{opacity:.52;}.cls-6_mountain-58{fill:#000001;opacity:.2;}.cls-7_mountain-58{fill:#24285b;}.cls-8_mountain-58{fill:#68e1fd;}</style></defs><g id="bg_mountain-58"><path class="cls-4_mountain-58" d="m37.97,174.9c-44.61,97.46,0,264.18,0,264.18h426.59c11.76-134.69,46.87-349.08-114.38-393.28-55.1-15.1-251.62-3.29-312.21,129.09Z"/><circle class="cls-2_mountain-58" cx="329.69" cy="145.94" r="44.37"/><circle class="cls-1_mountain-58" cx="329.69" cy="145.94" r="69.35"/><path class="cls-5_mountain-58" d="m444.47,291.92c-1.13,0-2.21.21-3.22.56.49-1.55.76-3.21.76-4.92,0-9-7.29-16.29-16.29-16.29s-16.29,7.29-16.29,16.29c0,.43.03.86.06,1.28-1.6-.82-3.41-1.28-5.33-1.28-6.52,0-11.8,5.28-11.8,11.8s5.28,11.8,11.8,11.8h40.31c5.31,0,9.62-4.31,9.62-9.62s-4.31-9.62-9.62-9.62Z"/><path class="cls-5_mountain-58" d="m99.21,288.27c-1.13,0-2.21.21-3.22.56.49-1.55.76-3.21.76-4.92,0-9-7.29-16.29-16.29-16.29s-16.29,7.29-16.29,16.29c0,.43.03.86.06,1.28-1.6-.82-3.41-1.28-5.33-1.28-6.52,0-11.8,5.28-11.8,11.8s5.28,11.8,11.8,11.8h40.31c5.31,0,9.62-4.31,9.62-9.62s-4.31-9.62-9.62-9.62Z"/><path class="cls-5_mountain-58" d="m196.39,135.07c-1.21,0-2.36.22-3.43.6.52-1.66.81-3.42.81-5.25,0-9.59-7.77-17.36-17.36-17.36s-17.36,7.77-17.36,17.36c0,.46.03.92.07,1.37-1.71-.87-3.64-1.37-5.68-1.37-6.94,0-12.57,5.63-12.57,12.57s5.63,12.57,12.57,12.57h42.95c5.66,0,10.25-4.59,10.25-10.25s-4.59-10.25-10.25-10.25Z"/></g><g id="mountain_mountain-58"><path class="cls-8_mountain-58 targetColor" d="m453.15,442.13H46.85s43.05-83.81,53.82-88.13c10.76-4.34,21.97-8.12,21.97-8.12,0,0,21.07-49.73,29.6-55.15,8.52-5.4,27.36-7.56,31.39-14.06,3.72-5.95,29.38-49.34,38.73-56.36.84-.62,1.53-.95,2.08-.95,6.73,0,65.02,77.86,65.02,77.86,0,0,17.75-.79,26.52,2.72,1.48.58,2.7,1.3,3.54,2.15,5.83,5.95,33.19,37.85,38.12,37.85,3.82,0,21.96,4.55,33.45,9.38,3.32,1.38,6.09,2.81,7.8,4.13,7.63,5.95,48.44,51.9,54.27,88.67Z" style="fill: rgb(0, 170, 88);"/><path class="cls-3_mountain-58" d="m408.23,432.86c2.95.75,5.9,2.51,8.85,1.73,1.77-.47,3.17-1.78,4.59-2.94,6.53-5.31,15.14-7.99,23.54-7.33,3.88.31,7.8,1.35,10.9,3.71,2.63,2.01,4.49,4.82,6.31,7.59,3.78,5.75,7.55,11.49,11.33,17.24-30.06,1.07-64.95,1.45-93.99-7.22,1.4-7.83,21.19-14.63,28.49-12.77Z"/><path class="cls-6_mountain-58" d="m220.85,244.24c-6.28,11.82-15.18,23.06-19.83,35.97-6.19,17.2-4.28,43.25-3.43,61.82-7.31-6.08-11.67-18.25-20.47-19.63-7.11-1.11-13.36,5.71-17.44,12.83-1.9,3.31-3.61,6.9-4.13,10.88-.67,5.12.7,10.26,1.29,15.39s.11,11.08-3.25,14.32c-2.03,1.96-4.71,2.54-7.18,3.53-8.21,3.32-14.66,12.27-16.24,22.52-1.56,10.12,1.76,18.95,6.85,26.71,2.18,3.33,8.36,13.53,12.08,13.53H46.85s43.05-83.81,53.82-88.13c10.76-4.34,21.97-8.12,21.97-8.12,0,0,21.07-49.73,29.6-55.15,8.52-5.4,27.36-7.56,31.39-14.06,3.72-5.95,29.38-49.34,38.73-56.36l2.08-.95s.44,17.3-3.58,24.87Z"/><path class="cls-6_mountain-58" d="m293.95,401.71c-.11,14.61,4.62,34.89,5.83,40.41h-69.29s22.86-19.73,27.58-23.79c6.72-5.81,8.89-25.62,10.96-34.56,1.65-7.13,4.46-9.44,8.29-15.18,4.14-6.2,7.05-13.54,9-21.11,2.46-9.57,4.53-21.12,4.3-31.2-.05-2.13-2.95-18.98-1.18-19.06,0,0,17.75-.79,26.52,2.72-1.44,3.47-2.85,7.01-3.41,8.89-.96,3.24.31,6.29.86,9.35.81,4.48,1.14,8.89,1.57,13.52,1.03,11.08,3.05,21.99,4.51,32.99,2.04,15.43,2.94,31.61-1.32,46.36-2.02-4.66-3.11-9.83-5.05-14.53-1.95-4.7-5.08-9.14-9.34-10.28-7.39-1.98-9.76,5.4-9.84,15.46Z"/><path class="cls-6_mountain-58" d="m384.99,362.64c-3.14,10.82,0,51.37,0,51.37,0,0-6.73-16.23-9.43-32.45-2.69-16.22-17.93-41.62-17.93-41.62,3.82,0,21.96,4.55,33.45,9.38-2.6,4.74-5.01,9.56-6.09,13.32Z"/><path class="cls-3_mountain-58" d="m39.37,432.25c4.4-5.74,8.8-11.48,13.2-17.22,1.15-1.5,2.36-3.06,4.06-3.91,6.62-3.31,13.43,6.04,20.8,5.31,3.67-.36,6.54-3.14,9.67-5.09,5.66-3.52,12.89-4.39,19.23-2.31,2.29.75,4.53,1.87,6.93,1.84,2.94-.04,5.56-1.79,7.97-3.48,5.83-4.07,11.66-8.14,17.49-12.21,2.79-1.95,5.75-3.96,9.14-4.26,3.78-.33,7.37,1.51,10.71,3.3,10.34,5.55,20.69,11.09,31.03,16.64,2.7,1.45,5.47,2.92,8.5,3.33,11.07,1.5,20.74-11.3,31.62-8.77,6,1.39,10.17,7.14,16.1,8.82,4.84,1.37,9.95-.21,14.97-.47,19.82-1.03,46.37,21.76,54.92,38.62-19.25.82-38.55.6-57.78-.64-8.26-.53-16.53-1.26-24.6-3.09-40.43-9.14-84.55-4.73-126.05-4.73-24.74,0-49.49,0-74.23,0"/><rect class="cls-7_mountain-58" x="16.19" y="442.13" width="467.63" height="17.15" rx="5.81" ry="5.81"/></g></svg>